<?xml version="1.0" encoding="utf-8"?>
<!-- Generator: Adobe Illustrator 16.0.0, SVG Export Plug-In . SVG Version: 6.00 Build 0)  -->
<!DOCTYPE svg PUBLIC "-//W3C//DTD SVG 1.1//EN" "http://www.w3.org/Graphics/SVG/1.1/DTD/svg11.dtd">
<svg version="1.1" id="Layer_1" xmlns="http://www.w3.org/2000/svg" xmlns:xlink="http://www.w3.org/1999/xlink" x="0px" y="0px"
	 width="612px" height="612px" viewBox="0 0 612 612" enable-background="new 0 0 612 612" xml:space="preserve">
<g>
	<polygon fill="none" stroke="#FFFFFF" stroke-width="0.75" stroke-miterlimit="10" points="306.003,245.964 400.312,245.934 
		353.21,327.727 306.002,409.342 258.796,327.727 211.488,245.934 	"/>
	<polygon fill="none" stroke="#FFFFFF" stroke-width="0.75" stroke-miterlimit="10" points="306.001,245.963 211.488,245.934 
		258.794,164.2 306.001,82.437 353.209,164.2 400.312,245.934 	"/>
	<polygon fill="none" stroke="#FFFFFF" stroke-width="0.75" stroke-miterlimit="10" points="211.488,245.934 258.593,327.488 
		306.002,409.342 211.591,409.371 117.179,409.607 	"/>
	<polygon fill="none" stroke="#FFFFFF" stroke-width="0.75" stroke-miterlimit="10" points="353.004,327.725 400.312,245.934 
		447.416,327.488 494.826,409.133 400.414,409.371 306.002,409.342 	"/>
	
		<line fill="none" stroke="#FFFFFF" stroke-width="0.75" stroke-miterlimit="10" x1="492.584" y1="193.843" x2="306.001" y2="82.437"/>
	
		<line fill="none" stroke="#FFFFFF" stroke-width="0.75" stroke-miterlimit="10" x1="492.584" y1="193.843" x2="494.826" y2="409.133"/>
	
		<line fill="none" stroke="#FFFFFF" stroke-width="0.75" stroke-miterlimit="10" x1="306.001" y1="82.437" x2="119.421" y2="193.843"/>
	
		<line fill="none" stroke="#FFFFFF" stroke-width="0.75" stroke-miterlimit="10" x1="119.421" y1="193.843" x2="117.179" y2="409.607"/>
	
		<line fill="none" stroke="#FFFFFF" stroke-width="0.75" stroke-miterlimit="10" x1="117.179" y1="409.607" x2="306.004" y2="522.646"/>
	
		<line fill="none" stroke="#FFFFFF" stroke-width="0.75" stroke-miterlimit="10" x1="306.004" y1="522.646" x2="494.826" y2="409.133"/>
	
		<line fill="none" stroke="#FFFFFF" stroke-width="0.75" stroke-miterlimit="10" x1="211.488" y1="245.934" x2="119.421" y2="193.843"/>
	
		<line fill="none" stroke="#FFFFFF" stroke-width="0.75" stroke-miterlimit="10" x1="400.312" y1="245.934" x2="492.584" y2="193.843"/>
	
		<line fill="none" stroke="#FFFFFF" stroke-width="0.75" stroke-miterlimit="10" x1="306.002" y1="409.342" x2="306.004" y2="522.646"/>
</g>
</svg>
